<svg width="1920" height="1080" viewBox="0 0 1920 1080" xmlns="http://www.w3.org/2000/svg"><rect width="1920" height="1080" fill="#e5a9be"/><path d="M 0,1080 C 0,1080 0,540 0,540 C 80.01233431516934,463.73030191458025 160.02466863033868,387.4606038291605 286,422 C 411.9753313696613,456.5393961708395 583.9136597938144,601.8878865979382 693,626 C 802.0863402061856,650.1121134020618 848.3206921944035,552.9878497790869 822,526 C 795.6793078055965,499.01215022091304 696.8035714285716,542.1607142857142 732,512 C 767.1964285714284,481.8392857142857 936.4650220913106,378.369293078056 1247,415 C 1557.5349779086894,451.630706921944 2009.3363402061855,628.3621134020619 2052,632 C 2094.6636597938145,635.6378865979381 1728.1896170839473,466.18225331369655 1638,422 C 1547.8103829160527,377.81774668630345 1733.9051914580264,458.90887334315175 1920,540 C 1920,540 1920,1080 1920,1080 Z" fill="#ece9eb" opacity="0.3"/></svg>