<svg width="1920" height="1080" viewBox="0 0 1920 1080" xmlns="http://www.w3.org/2000/svg"><rect width="1920" height="1080" fill="#f0578d"/><path d="M 0,1080 C 0,1080 0,540 0,540 C 206.56829896907217,533.5268777614139 413.13659793814435,527.0537555228277 397,574 C 380.86340206185565,620.9462444771723 142.0219072164948,721.3118556701031 315,713 C 487.9780927835052,704.6881443298969 1072.7757731958764,587.69882179676 1164,476 C 1255.2242268041236,364.30117820324006 852.875,257.89285714285717 724,350 C 595.125,442.10714285714283 739.7242268041236,732.7297496318114 1066,723 C 1392.2757731958764,713.2702503681886 1900.2280927835052,403.1881443298969 1950,367 C 1999.7719072164948,330.8118556701031 1591.3634020618558,568.5176730486008 1510,643 C 1428.6365979381442,717.4823269513992 1674.3182989690722,628.7411634756995 1920,540 C 1920,540 1920,1080 1920,1080 Z" fill="#fbbcd1" opacity="0.3"/></svg>