<?xml version="1.0" standalone="no"?>
<svg xmlns:xlink="http://www.w3.org/1999/xlink" id="wave" style="transform:rotate(0deg); transition: 0.3s" viewBox="0 0 1440 490" version="1.1" xmlns="http://www.w3.org/2000/svg"><defs><linearGradient id="sw-gradient-0" x1="0" x2="0" y1="1" y2="0"><stop stop-color="rgba(62, 182.292, 243, 1)" offset="0%"/><stop stop-color="rgba(11, 255, 154.975, 1)" offset="100%"/></linearGradient></defs><path style="transform:translate(0, 0px); opacity:1" fill="url(#sw-gradient-0)" d="M0,441L40,367.5C80,294,160,147,240,114.3C320,82,400,163,480,236.8C560,310,640,376,720,351.2C800,327,880,212,960,155.2C1040,98,1120,98,1200,155.2C1280,212,1360,327,1440,318.5C1520,310,1600,180,1680,106.2C1760,33,1840,16,1920,16.3C2000,16,2080,33,2160,73.5C2240,114,2320,180,2400,245C2480,310,2560,376,2640,408.3C2720,441,2800,441,2880,375.7C2960,310,3040,180,3120,122.5C3200,65,3280,82,3360,73.5C3440,65,3520,33,3600,65.3C3680,98,3760,196,3840,245C3920,294,4000,294,4080,310.3C4160,327,4240,359,4320,383.8C4400,408,4480,425,4560,359.3C4640,294,4720,147,4800,138.8C4880,131,4960,261,5040,326.7C5120,392,5200,392,5280,351.2C5360,310,5440,229,5520,204.2C5600,180,5680,212,5720,228.7L5760,245L5760,490L5720,490C5680,490,5600,490,5520,490C5440,490,5360,490,5280,490C5200,490,5120,490,5040,490C4960,490,4880,490,4800,490C4720,490,4640,490,4560,490C4480,490,4400,490,4320,490C4240,490,4160,490,4080,490C4000,490,3920,490,3840,490C3760,490,3680,490,3600,490C3520,490,3440,490,3360,490C3280,490,3200,490,3120,490C3040,490,2960,490,2880,490C2800,490,2720,490,2640,490C2560,490,2480,490,2400,490C2320,490,2240,490,2160,490C2080,490,2000,490,1920,490C1840,490,1760,490,1680,490C1600,490,1520,490,1440,490C1360,490,1280,490,1200,490C1120,490,1040,490,960,490C880,490,800,490,720,490C640,490,560,490,480,490C400,490,320,490,240,490C160,490,80,490,40,490L0,490Z"/><defs><linearGradient id="sw-gradient-1" x1="0" x2="0" y1="1" y2="0"><stop stop-color="rgba(62, 219.085, 243, 1)" offset="0%"/><stop stop-color="rgba(11, 255, 188.041, 1)" offset="100%"/></linearGradient></defs><path style="transform:translate(0, 50px); opacity:0.9" fill="url(#sw-gradient-1)" d="M0,245L40,220.5C80,196,160,147,240,106.2C320,65,400,33,480,49C560,65,640,131,720,196C800,261,880,327,960,294C1040,261,1120,131,1200,73.5C1280,16,1360,33,1440,81.7C1520,131,1600,212,1680,253.2C1760,294,1840,294,1920,269.5C2000,245,2080,196,2160,220.5C2240,245,2320,343,2400,392C2480,441,2560,441,2640,375.7C2720,310,2800,180,2880,114.3C2960,49,3040,49,3120,114.3C3200,180,3280,310,3360,367.5C3440,425,3520,408,3600,351.2C3680,294,3760,196,3840,196C3920,196,4000,294,4080,302.2C4160,310,4240,229,4320,187.8C4400,147,4480,147,4560,163.3C4640,180,4720,212,4800,228.7C4880,245,4960,245,5040,269.5C5120,294,5200,343,5280,326.7C5360,310,5440,229,5520,179.7C5600,131,5680,114,5720,106.2L5760,98L5760,490L5720,490C5680,490,5600,490,5520,490C5440,490,5360,490,5280,490C5200,490,5120,490,5040,490C4960,490,4880,490,4800,490C4720,490,4640,490,4560,490C4480,490,4400,490,4320,490C4240,490,4160,490,4080,490C4000,490,3920,490,3840,490C3760,490,3680,490,3600,490C3520,490,3440,490,3360,490C3280,490,3200,490,3120,490C3040,490,2960,490,2880,490C2800,490,2720,490,2640,490C2560,490,2480,490,2400,490C2320,490,2240,490,2160,490C2080,490,2000,490,1920,490C1840,490,1760,490,1680,490C1600,490,1520,490,1440,490C1360,490,1280,490,1200,490C1120,490,1040,490,960,490C880,490,800,490,720,490C640,490,560,490,480,490C400,490,320,490,240,490C160,490,80,490,40,490L0,490Z"/><defs><linearGradient id="sw-gradient-2" x1="0" x2="0" y1="1" y2="0"><stop stop-color="rgba(62, 243, 205.594, 1)" offset="0%"/><stop stop-color="rgba(11, 255, 212.84, 1)" offset="100%"/></linearGradient></defs><path style="transform:translate(0, 100px); opacity:0.8" fill="url(#sw-gradient-2)" d="M0,49L40,89.8C80,131,160,212,240,253.2C320,294,400,294,480,245C560,196,640,98,720,89.8C800,82,880,163,960,163.3C1040,163,1120,82,1200,73.5C1280,65,1360,131,1440,204.2C1520,278,1600,359,1680,326.7C1760,294,1840,147,1920,98C2000,49,2080,98,2160,171.5C2240,245,2320,343,2400,367.5C2480,392,2560,343,2640,277.7C2720,212,2800,131,2880,130.7C2960,131,3040,212,3120,269.5C3200,327,3280,359,3360,310.3C3440,261,3520,131,3600,138.8C3680,147,3760,294,3840,351.2C3920,408,4000,376,4080,302.2C4160,229,4240,114,4320,81.7C4400,49,4480,98,4560,147C4640,196,4720,245,4800,277.7C4880,310,4960,327,5040,302.2C5120,278,5200,212,5280,212.3C5360,212,5440,278,5520,261.3C5600,245,5680,147,5720,98L5760,49L5760,490L5720,490C5680,490,5600,490,5520,490C5440,490,5360,490,5280,490C5200,490,5120,490,5040,490C4960,490,4880,490,4800,490C4720,490,4640,490,4560,490C4480,490,4400,490,4320,490C4240,490,4160,490,4080,490C4000,490,3920,490,3840,490C3760,490,3680,490,3600,490C3520,490,3440,490,3360,490C3280,490,3200,490,3120,490C3040,490,2960,490,2880,490C2800,490,2720,490,2640,490C2560,490,2480,490,2400,490C2320,490,2240,490,2160,490C2080,490,2000,490,1920,490C1840,490,1760,490,1680,490C1600,490,1520,490,1440,490C1360,490,1280,490,1200,490C1120,490,1040,490,960,490C880,490,800,490,720,490C640,490,560,490,480,490C400,490,320,490,240,490C160,490,80,490,40,490L0,490Z"/><defs><linearGradient id="sw-gradient-3" x1="0" x2="0" y1="1" y2="0"><stop stop-color="rgba(62, 243, 64.555, 1)" offset="0%"/><stop stop-color="rgba(11, 189.695, 255, 1)" offset="100%"/></linearGradient></defs><path style="transform:translate(0, 150px); opacity:0.7" fill="url(#sw-gradient-3)" d="M0,294L40,310.3C80,327,160,359,240,343C320,327,400,261,480,204.2C560,147,640,98,720,130.7C800,163,880,278,960,334.8C1040,392,1120,392,1200,326.7C1280,261,1360,131,1440,65.3C1520,0,1600,0,1680,24.5C1760,49,1840,98,1920,147C2000,196,2080,245,2160,285.8C2240,327,2320,359,2400,351.2C2480,343,2560,294,2640,277.7C2720,261,2800,278,2880,285.8C2960,294,3040,294,3120,310.3C3200,327,3280,359,3360,375.7C3440,392,3520,392,3600,400.2C3680,408,3760,425,3840,359.3C3920,294,4000,147,4080,114.3C4160,82,4240,163,4320,196C4400,229,4480,212,4560,204.2C4640,196,4720,196,4800,228.7C4880,261,4960,327,5040,359.3C5120,392,5200,392,5280,367.5C5360,343,5440,294,5520,285.8C5600,278,5680,310,5720,326.7L5760,343L5760,490L5720,490C5680,490,5600,490,5520,490C5440,490,5360,490,5280,490C5200,490,5120,490,5040,490C4960,490,4880,490,4800,490C4720,490,4640,490,4560,490C4480,490,4400,490,4320,490C4240,490,4160,490,4080,490C4000,490,3920,490,3840,490C3760,490,3680,490,3600,490C3520,490,3440,490,3360,490C3280,490,3200,490,3120,490C3040,490,2960,490,2880,490C2800,490,2720,490,2640,490C2560,490,2480,490,2400,490C2320,490,2240,490,2160,490C2080,490,2000,490,1920,490C1840,490,1760,490,1680,490C1600,490,1520,490,1440,490C1360,490,1280,490,1200,490C1120,490,1040,490,960,490C880,490,800,490,720,490C640,490,560,490,480,490C400,490,320,490,240,490C160,490,80,490,40,490L0,490Z"/></svg>