<svg id="visual" viewBox="0 0 450 900" width="450" height="900" xmlns="http://www.w3.org/2000/svg" xmlns:xlink="http://www.w3.org/1999/xlink" version="1.1"><rect x="0" y="0" width="450" height="900" fill="#A4FBF8"></rect><path d="M0 342L15 351.5C30 361 60 380 90 381.8C120 383.7 150 368.3 180 390C210 411.7 240 470.3 270 491.7C300 513 330 497 360 468.8C390 440.7 420 400.3 435 380.2L450 360L450 901L435 901C420 901 390 901 360 901C330 901 300 901 270 901C240 901 210 901 180 901C150 901 120 901 90 901C60 901 30 901 15 901L0 901Z" fill="#A3E5E2" stroke-linecap="round" stroke-linejoin="miter"></path></svg>